# xmcd
#
# Track frame offsets: 
#        150
#        14327
#        27962
#        44525
#        61330
#        73830
#        84245
#        99435
#        114425
#        128970
#
# Disc length: 2005 seconds
#
# Revision: 2
# Processed by: cddbd v1.5PL3 Copyright (c) Steve Scherf et al.
# Submitted via: ExactAudioCopy v0.95a5
#
DISCID=8007d30a
DTITLE=Sawyer Brown - BUICK
DYEAR=1991
DGENRE=Country
TTITLE0=Mama's Little Baby Loves Me
TTITLE1=My Baby Drives a Buick
TTITLE2=When You Run From Love
TTITLE3=The Walk
TTITLE4=48 Hours Till Monday
TTITLE5=Superman's Daughter
TTITLE6=One Less Pony
TTITLE7=Still Water
TTITLE8=Stealin' Home
TTITLE9=Thunder Bay
EXTD=
EXTT0=
EXTT1=
EXTT2=
EXTT3=
EXTT4=
EXTT5=
EXTT6=
EXTT7=
EXTT8=
EXTT9=
PLAYORDER=
